<svg width="40" height="40" viewBox="0 0 40 40" fill="none" xmlns="http://www.w3.org/2000/svg">
<rect width="40" height="40" rx="20" fill="white"/>
<g filter="url(#filter0_d_497_2942)">
<path d="M30 19.9995C30 14.4861 25.5136 10 20 10C14.4864 10 10 14.4861 10 19.9995C10 25.4301 14.3524 29.8641 19.7518 29.9961V29.997H19.803C19.869 29.998 19.934 30 20 30C20.066 30 20.131 29.999 20.197 29.997H20.2482V29.9961C25.6476 29.8631 30 25.4301 30 19.9995ZM19.803 29.2082C17.3821 29.1569 15.1876 28.1671 13.5704 26.5884C14.0678 23.4486 16.797 21.1045 20.001 21.1045C21.7404 21.1045 23.3754 21.7821 24.6055 23.0123C25.5737 23.9804 26.2169 25.244 26.4316 26.5884C24.8143 28.1671 22.6199 29.1579 20.198 29.2082H19.803ZM20 20.3166C18.2153 20.3166 16.7645 18.8649 16.7645 17.0813C16.7645 15.2977 18.2163 13.846 20 13.846C21.7837 13.846 23.2355 15.2977 23.2355 17.0813C23.2355 18.8649 21.7837 20.3166 20 20.3166ZM20 10.7879C25.0793 10.7879 29.2121 14.9205 29.2121 19.9995C29.2121 22.2313 28.4143 24.2798 27.0895 25.8753C26.7724 24.591 26.1046 23.3983 25.162 22.4558C24.2608 21.5546 23.1656 20.9204 21.9708 20.5875C23.1951 19.8971 24.0234 18.5842 24.0234 17.0823C24.0234 14.8633 22.2181 13.059 20 13.059C17.7819 13.059 15.9766 14.8643 15.9766 17.0823C15.9766 18.5862 16.8059 19.8991 18.0311 20.5895C15.5284 21.2927 13.5408 23.3028 12.9105 25.8763C11.5857 24.2808 10.7879 22.2322 10.7879 20.0005C10.7879 14.9205 14.9207 10.7879 20 10.7879Z" fill="black"/>
</g>
<defs>
<filter id="filter0_d_497_2942" x="10" y="10" width="21" height="21" filterUnits="userSpaceOnUse" color-interpolation-filters="sRGB">
<feFlood flood-opacity="0" result="BackgroundImageFix"/>
<feColorMatrix in="SourceAlpha" type="matrix" values="0 0 0 0 0 0 0 0 0 0 0 0 0 0 0 0 0 0 127 0" result="hardAlpha"/>
<feOffset dx="1" dy="1"/>
<feComposite in2="hardAlpha" operator="out"/>
<feColorMatrix type="matrix" values="0 0 0 0 0.8 0 0 0 0 0.8 0 0 0 0 0.8 0 0 0 1 0"/>
<feBlend mode="normal" in2="BackgroundImageFix" result="effect1_dropShadow_497_2942"/>
<feBlend mode="normal" in="SourceGraphic" in2="effect1_dropShadow_497_2942" result="shape"/>
</filter>
</defs>
</svg>
